<svg width="183" height="39" viewBox="0 0 183 39" fill="none" xmlns="http://www.w3.org/2000/svg">
<path d="M21.2361 16.8065H15.3511L20.5744 4.05728C20.9671 3.09875 19.7269 2.31906 19.0333 3.08843L2.76134 21.1384C1.76588 22.2426 2.5495 24.0041 4.0362 24.0041H9.92123L4.69793 36.7532C4.30522 37.7117 5.54542 38.4914 6.23901 37.722L22.511 19.6722C23.5064 18.5679 22.7228 16.8065 21.2361 16.8065Z" fill="#FF6600"/>
<path d="M24.0921 15.0643H18.2071L23.4304 2.31509C23.8231 1.35657 22.5829 0.576877 21.8893 1.34625L5.6173 19.3962C4.62184 20.5004 5.40545 22.2619 6.89215 22.2619H12.7772L7.55388 35.011C7.16117 35.9695 8.40138 36.7492 9.09497 35.9798L25.3669 17.93C26.3624 16.8257 25.5788 15.0643 24.0921 15.0643Z" fill="black"/>
<path d="M173.803 29.6894V14.3842H177.629V16.1122H178.184C178.411 15.4951 178.781 15.0425 179.295 14.7545C179.83 14.4665 180.447 14.3225 181.147 14.3225H182.998V17.7785H181.085C180.098 17.7785 179.285 18.0459 178.647 18.5808C178.01 19.0951 177.691 19.8974 177.691 20.9877V29.6894H173.803Z" fill="black"/>
<path d="M164.819 30.1213C163.297 30.1213 161.949 29.8024 160.776 29.1647C159.624 28.5064 158.719 27.591 158.061 26.4184C157.423 25.2253 157.104 23.8264 157.104 22.2219V21.8516C157.104 20.247 157.423 18.8584 158.061 17.6859C158.699 16.4927 159.594 15.5773 160.746 14.9396C161.898 14.2813 163.235 13.9521 164.757 13.9521C166.259 13.9521 167.565 14.2916 168.676 14.9704C169.787 15.6287 170.651 16.5544 171.268 17.7476C171.885 18.9201 172.194 20.2881 172.194 21.8516V23.1784H161.054C161.095 24.2276 161.486 25.0813 162.227 25.7396C162.967 26.3979 163.873 26.727 164.942 26.727C166.033 26.727 166.835 26.4904 167.349 26.0173C167.863 25.5441 168.254 25.0196 168.522 24.4436L171.7 26.1099C171.412 26.6447 170.99 27.231 170.435 27.8687C169.9 28.4859 169.18 29.0207 168.275 29.4733C167.37 29.9053 166.218 30.1213 164.819 30.1213ZM161.085 20.2779H168.244C168.162 19.3933 167.802 18.6836 167.164 18.1487C166.547 17.6139 165.734 17.3464 164.726 17.3464C163.677 17.3464 162.844 17.6139 162.227 18.1487C161.61 18.6836 161.229 19.3933 161.085 20.2779Z" fill="black"/>
<path d="M143.213 29.6894V8.08936H147.101V20.0311H147.657L152.717 14.3842H157.778L150.712 21.7899L158.025 29.6894H153.026L147.657 23.6105H147.101V29.6894H143.213Z" fill="black"/>
<path d="M131.978 30.1213C130.887 30.1213 129.91 29.9362 129.046 29.5659C128.182 29.175 127.493 28.6196 126.979 27.8996C126.485 27.159 126.238 26.2641 126.238 25.215C126.238 24.1659 126.485 23.2916 126.979 22.5921C127.493 21.8721 128.193 21.3373 129.077 20.9876C129.982 20.6173 131.011 20.4321 132.163 20.4321H136.359V19.5681C136.359 18.8481 136.133 18.2619 135.681 17.8093C135.228 17.3361 134.508 17.0996 133.521 17.0996C132.554 17.0996 131.834 17.3259 131.361 17.7784C130.887 18.2104 130.579 18.7761 130.435 19.4756L126.855 18.2722C127.102 17.4904 127.493 16.7807 128.028 16.143C128.583 15.4847 129.314 14.9601 130.219 14.5693C131.145 14.1579 132.266 13.9521 133.582 13.9521C135.598 13.9521 137.193 14.4561 138.365 15.4641C139.538 16.4721 140.124 17.9327 140.124 19.8459V25.5544C140.124 26.1716 140.412 26.4802 140.988 26.4802H142.222V29.6893H139.63C138.869 29.6893 138.242 29.5041 137.748 29.1339C137.254 28.7636 137.007 28.2699 137.007 27.6527V27.6219H136.421C136.339 27.8687 136.154 28.1979 135.866 28.6093C135.578 29.0002 135.125 29.3499 134.508 29.6584C133.891 29.967 133.047 30.1213 131.978 30.1213ZM132.657 26.9739C133.747 26.9739 134.631 26.6756 135.31 26.079C136.01 25.4619 136.359 24.6493 136.359 23.6413V23.3327H132.441C131.721 23.3327 131.155 23.487 130.743 23.7956C130.332 24.1041 130.126 24.5361 130.126 25.0916C130.126 25.647 130.342 26.0996 130.774 26.4493C131.206 26.799 131.834 26.9739 132.657 26.9739Z" fill="black"/>
<path d="M102.74 29.6893V14.3842H106.566V16.0505H107.121C107.389 15.5362 107.831 15.0939 108.448 14.7236C109.065 14.3328 109.878 14.1373 110.886 14.1373C111.976 14.1373 112.851 14.3533 113.509 14.7853C114.167 15.1968 114.671 15.7419 115.021 16.4208H115.576C115.926 15.7625 116.42 15.2173 117.057 14.7853C117.695 14.3533 118.6 14.1373 119.773 14.1373C120.719 14.1373 121.573 14.343 122.334 14.7545C123.116 15.1453 123.733 15.7522 124.185 16.575C124.659 17.3773 124.895 18.3956 124.895 19.6299V29.6893H121.007V19.9076C121.007 19.0642 120.791 18.4368 120.359 18.0253C119.927 17.5933 119.32 17.3773 118.539 17.3773C117.654 17.3773 116.965 17.6653 116.471 18.2413C115.998 18.7968 115.761 19.599 115.761 20.6482V29.6893H111.873V19.9076C111.873 19.0642 111.657 18.4368 111.225 18.0253C110.793 17.5933 110.187 17.3773 109.405 17.3773C108.52 17.3773 107.831 17.6653 107.337 18.2413C106.864 18.7968 106.628 19.599 106.628 20.6482V29.6893H102.74Z" fill="black"/>
<path d="M91.0853 30.1214C89.8716 30.1214 88.7299 29.8231 87.6602 29.2265C86.6111 28.6094 85.7676 27.7145 85.1299 26.5419C84.4922 25.3694 84.1733 23.9499 84.1733 22.2836V21.7899C84.1733 20.1236 84.4922 18.7042 85.1299 17.5316C85.7676 16.3591 86.6111 15.4745 87.6602 14.8779C88.7093 14.2608 89.8511 13.9522 91.0853 13.9522C92.0111 13.9522 92.7825 14.0654 93.3996 14.2916C94.0373 14.4974 94.5516 14.7648 94.9425 15.0939C95.3333 15.4231 95.6316 15.7728 95.8373 16.1431H96.3928V8.08936H100.281V29.6894H96.4545V27.8379H95.8991C95.5493 28.4139 95.0042 28.9385 94.2636 29.4116C93.5436 29.8848 92.4842 30.1214 91.0853 30.1214ZM92.2579 26.7271C93.4511 26.7271 94.4488 26.3465 95.2511 25.5854C96.0533 24.8036 96.4545 23.6722 96.4545 22.1911V21.8825C96.4545 20.4014 96.0533 19.2802 95.2511 18.5191C94.4693 17.7374 93.4716 17.3465 92.2579 17.3465C91.0648 17.3465 90.0671 17.7374 89.2648 18.5191C88.4625 19.2802 88.0613 20.4014 88.0613 21.8825V22.1911C88.0613 23.6722 88.4625 24.8036 89.2648 25.5854C90.0671 26.3465 91.0648 26.7271 92.2579 26.7271Z" fill="black"/>
<path d="M67.751 29.6893V14.3842H71.5773V16.3899H72.1327C72.3795 15.855 72.8424 15.351 73.5213 14.8779C74.2001 14.3842 75.2287 14.1373 76.607 14.1373C77.8001 14.1373 78.839 14.415 79.7235 14.9705C80.6287 15.5053 81.3281 16.2562 81.8218 17.223C82.3155 18.1693 82.5624 19.2802 82.5624 20.5556V29.6893H78.6744V20.8642C78.6744 19.7122 78.3864 18.8482 77.8104 18.2722C77.255 17.6962 76.4527 17.4082 75.4035 17.4082C74.2104 17.4082 73.2847 17.8093 72.6264 18.6116C71.9681 19.3933 71.639 20.4939 71.639 21.9133V29.6893H67.751Z" fill="black"/>
<path d="M61.406 29.6894V14.3842H65.294V29.6894H61.406ZM63.35 12.5945C62.6506 12.5945 62.054 12.3682 61.5603 11.9156C61.0872 11.4631 60.8506 10.8665 60.8506 10.1259C60.8506 9.38535 61.0872 8.78878 61.5603 8.33621C62.054 7.88363 62.6506 7.65735 63.35 7.65735C64.07 7.65735 64.6666 7.88363 65.1397 8.33621C65.6129 8.78878 65.8494 9.38535 65.8494 10.1259C65.8494 10.8665 65.6129 11.4631 65.1397 11.9156C64.6666 12.3682 64.07 12.5945 63.35 12.5945Z" fill="black"/>
<path d="M35.9229 29.6894V8.08936H43.4829L47.2166 26.9122H47.772L51.5057 8.08936H59.0657V29.6894H55.116V11.0825H54.5606L50.8577 29.6894H44.1309L40.428 11.0825H39.8726V29.6894H35.9229Z" fill="black"/>
</svg>
